<?xml version="1.0" encoding="UTF-8"?>
<svg version="1.1" color="white" xmlns="http://www.w3.org/2000/svg" width="500" height="500">
<path d="M0 0 C0.721875 0.00257812 1.44375 0.00515625 2.1875 0.0078125 C2.909375 0.00523438 3.63125 0.00265625 4.375 0 C6.1875 0.1328125 6.1875 0.1328125 7.1875 1.1328125 C7.25929964 2.65209288 7.27142007 4.17448732 7.25 5.6953125 C7.24097656 6.52160156 7.23195312 7.34789063 7.22265625 8.19921875 C7.21105469 8.83730469 7.19945312 9.47539063 7.1875 10.1328125 C10.6525 9.6378125 10.6525 9.6378125 14.1875 9.1328125 C14.5175 6.1628125 14.8475 3.1928125 15.1875 0.1328125 C16.83324566 0.10593099 18.47911413 0.08647127 20.125 0.0703125 C21.49978516 0.05291016 21.49978516 0.05291016 22.90234375 0.03515625 C25.1875 0.1328125 25.1875 0.1328125 26.1875 1.1328125 C26.33007189 4.46899481 26.22978157 7.79256856 26.1875 11.1328125 C22.8875 11.1328125 19.5875 11.1328125 16.1875 11.1328125 C16.1875 16.7428125 16.1875 22.3528125 16.1875 28.1328125 C18.8275 28.1328125 21.4675 28.1328125 24.1875 28.1328125 C24.1875 25.1628125 24.1875 22.1928125 24.1875 19.1328125 C27.1575 19.1328125 30.1275 19.1328125 33.1875 19.1328125 C33.1875 16.1628125 33.1875 13.1928125 33.1875 10.1328125 C36.8175 10.1328125 40.4475 10.1328125 44.1875 10.1328125 C44.1875 13.1028125 44.1875 16.0728125 44.1875 19.1328125 C47.1575 19.1328125 50.1275 19.1328125 53.1875 19.1328125 C53.1875 22.1028125 53.1875 25.0728125 53.1875 28.1328125 C53.86103516 27.96152832 54.53457031 27.79024414 55.22851562 27.61376953 C58.3791148 26.81860297 61.53321321 26.03821717 64.6875 25.2578125 C65.74582031 24.98839844 66.80414063 24.71898437 67.89453125 24.44140625 C83.23489993 20.67520795 98.15867114 19.74929857 113.875 19.8203125 C115.19834854 19.82404373 115.19834854 19.82404373 116.5484314 19.82785034 C129.63262711 19.88486241 142.38151381 20.20579755 155.1875 23.1328125 C156.26837891 23.3798291 157.34925781 23.6268457 158.46289062 23.88134766 C170.82109481 26.78066796 182.53867777 30.05795307 194.1875 35.1328125 C195.57504316 35.6938805 196.96529015 36.24835811 198.359375 36.79296875 C204.7875842 39.31232148 211.08104589 41.89265317 217.1875 45.1328125 C217.1875 45.7928125 217.1875 46.4528125 217.1875 47.1328125 C217.72375 47.2359375 218.26 47.3390625 218.8125 47.4453125 C221.80995854 48.31299787 224.41381409 49.71557299 227.1875 51.1328125 C227.25768653 61.20078653 227.31065381 71.26870029 227.34293652 81.33687115 C227.35844761 86.0143022 227.37941177 90.69156324 227.41381836 95.36889648 C227.69810289 135.0869443 227.69810289 135.0869443 224.1875 152.1328125 C223.88114624 153.76561157 223.88114624 153.76561157 223.56860352 155.43139648 C223.06553576 157.97761183 222.49984247 160.48913122 221.875 163.0078125 C221.66407715 163.87092041 221.4531543 164.73402832 221.23583984 165.62329102 C217.31314761 181.03795506 210.3033722 195.49814721 202.1875 209.1328125 C201.5275 209.1328125 200.8675 209.1328125 200.1875 209.1328125 C200.11402344 209.66390625 200.04054688 210.195 199.96484375 210.7421875 C198.87706324 214.08752254 196.86033612 216.62187197 194.75 219.3828125 C194.34201172 219.93710937 193.93402344 220.49140625 193.51367188 221.0625 C192.45796691 222.46092159 191.32762413 223.80231902 190.1875 225.1328125 C189.5275 225.1328125 188.8675 225.1328125 188.1875 225.1328125 C187.98125 225.66390625 187.775 226.195 187.5625 226.7421875 C185.62017586 230.11918288 182.94392467 232.67238066 180.1875 235.3828125 C179.59936523 235.96345459 179.01123047 236.54409668 178.40527344 237.14233398 C163.36779432 251.81389294 145.31084548 263.7740803 126.5 273.0078125 C125.69127441 273.41410889 124.88254883 273.82040527 124.04931641 274.23901367 C119.26372184 276.52942424 115.59533908 277.90983689 110.1875 277.1328125 C107.5990232 276.01942837 105.34725891 274.91434807 102.9375 273.5078125 C102.28201172 273.14026855 101.62652344 272.77272461 100.95117188 272.39404297 C99.63177998 271.65406145 98.31529413 270.90887151 97.00195312 270.15820312 C94.5948444 268.79788872 92.13942967 267.53516508 89.6875 266.2578125 C71.4710054 256.26724616 53.882423 242.77942742 40.1875 227.1328125 C40.1875 226.4728125 40.1875 225.8128125 40.1875 225.1328125 C39.5275 225.1328125 38.8675 225.1328125 38.1875 225.1328125 C36.6796875 223.453125 36.6796875 223.453125 35.0625 221.2578125 C34.52367187 220.53851563 33.98484375 219.81921875 33.4296875 219.078125 C32.1875 217.1328125 32.1875 217.1328125 32.1875 215.1328125 C31.5275 215.1328125 30.8675 215.1328125 30.1875 215.1328125 C28.6796875 213.26953125 28.6796875 213.26953125 27.0625 210.8203125 C26.52367187 210.01980469 25.98484375 209.21929687 25.4296875 208.39453125 C24.1875 206.1328125 24.1875 206.1328125 24.1875 203.1328125 C23.5275 203.1328125 22.8675 203.1328125 22.1875 203.1328125 C12.37580451 182.43494189 5.15006985 162.93385286 2.1875 140.1328125 C2.01782715 138.94026855 1.8481543 137.74772461 1.67333984 136.51904297 C1.05828779 131.55820983 0.94210986 126.60707224 0.8359375 121.61328125 C0.81278473 120.63289383 0.78963196 119.65250641 0.76577759 118.64241028 C0.71842051 116.58432572 0.67315501 114.52619207 0.62988281 112.46801758 C0.56233191 109.31246037 0.48466091 106.15725704 0.40625 103.00195312 C0.36136954 100.99740939 0.31707789 98.99285237 0.2734375 96.98828125 C0.24953949 96.04454147 0.22564148 95.1008017 0.20101929 94.12846375 C0.1841507 93.25357803 0.1672821 92.37869232 0.14990234 91.47729492 C0.13293304 90.70866623 0.11596375 89.94003754 0.09848022 89.14811707 C0.1875 87.1328125 0.1875 87.1328125 1.1875 84.1328125 C2.8375 84.1328125 4.4875 84.1328125 6.1875 84.1328125 C6.1875 80.8328125 6.1875 77.5328125 6.1875 74.1328125 C3.5475 74.4628125 0.9075 74.7928125 -1.8125 75.1328125 C-1.8125 77.7728125 -1.8125 80.4128125 -1.8125 83.1328125 C-4.7825 83.1328125 -7.7525 83.1328125 -10.8125 83.1328125 C-10.8125 77.1928125 -10.8125 71.2528125 -10.8125 65.1328125 C-2.8925 64.6378125 -2.8925 64.6378125 5.1875 64.1328125 C5.5175 61.8228125 5.8475 59.5128125 6.1875 57.1328125 C3.2175 57.1328125 0.2475 57.1328125 -2.8125 57.1328125 C-2.8125 53.8328125 -2.8125 50.5328125 -2.8125 47.1328125 C-6.2775 47.6278125 -6.2775 47.6278125 -9.8125 48.1328125 C-10.1425 50.7728125 -10.4725 53.4128125 -10.8125 56.1328125 C-19.2275 56.6278125 -19.2275 56.6278125 -27.8125 57.1328125 C-28.1425 59.7728125 -28.4725 62.4128125 -28.8125 65.1328125 C-31.7825 65.1328125 -34.7525 65.1328125 -37.8125 65.1328125 C-37.8125 62.1628125 -37.8125 59.1928125 -37.8125 56.1328125 C-35.1725 56.1328125 -32.5325 56.1328125 -29.8125 56.1328125 C-29.4825 53.1628125 -29.1525 50.1928125 -28.8125 47.1328125 C-20.8925 46.6378125 -20.8925 46.6378125 -12.8125 46.1328125 C-12.1525 40.5228125 -11.4925 34.9128125 -10.8125 29.1328125 C-14.1125 29.1328125 -17.4125 29.1328125 -20.8125 29.1328125 C-20.91015625 22.19921875 -20.91015625 22.19921875 -20.8125 20.1328125 C-19.8125 19.1328125 -19.8125 19.1328125 -18 19 C-17.278125 19.00257813 -16.55625 19.00515625 -15.8125 19.0078125 C-15.090625 19.00523437 -14.36875 19.00265625 -13.625 19 C-11.8125 19.1328125 -11.8125 19.1328125 -10.8125 20.1328125 C-10.67134839 22.80340101 -10.77002893 25.45713488 -10.8125 28.1328125 C-9.513125 28.1121875 -8.21375 28.0915625 -6.875 28.0703125 C-5.52084367 28.04881796 -4.16493917 28.06133051 -2.8125 28.1328125 C-1.8125 29.1328125 -1.8125 29.1328125 -1.69897461 30.89868164 C-1.70421143 31.64754639 -1.70944824 32.39641113 -1.71484375 33.16796875 C-1.71806641 33.97685547 -1.72128906 34.78574219 -1.72460938 35.61914062 C-1.73717773 36.8943457 -1.73717773 36.8943457 -1.75 38.1953125 C-1.75451172 39.04931641 -1.75902344 39.90332031 -1.76367188 40.78320312 C-1.77549627 42.89976913 -1.79343231 45.01629935 -1.8125 47.1328125 C0.8275 47.1328125 3.4675 47.1328125 6.1875 47.1328125 C6.1875 44.1628125 6.1875 41.1928125 6.1875 38.1328125 C9.66573115 36.97340212 11.64645578 37.42460366 15.1875 38.1328125 C15.1875 35.1628125 15.1875 32.1928125 15.1875 29.1328125 C12.2175 29.1328125 9.2475 29.1328125 6.1875 29.1328125 C6.1875 26.1628125 6.1875 23.1928125 6.1875 20.1328125 C3.2175 20.1328125 0.2475 20.1328125 -2.8125 20.1328125 C-2.83933697 16.98692306 -2.85925902 13.84125979 -2.875 10.6953125 C-2.88337891 9.79748047 -2.89175781 8.89964844 -2.90039062 7.97460938 C-2.90361328 7.12060547 -2.90683594 6.26660156 -2.91015625 5.38671875 C-2.91539307 4.59595947 -2.92062988 3.8052002 -2.92602539 2.99047852 C-2.77332271 0.49173716 -2.49687559 0.18296071 0 0 Z M35.1875 20.1328125 C35.1875 22.7728125 35.1875 25.4128125 35.1875 28.1328125 C37.4975 28.1328125 39.8075 28.1328125 42.1875 28.1328125 C42.1875 25.4928125 42.1875 22.8528125 42.1875 20.1328125 C39.8775 20.1328125 37.5675 20.1328125 35.1875 20.1328125 Z M26.1875 29.1328125 C26.1875 31.7728125 26.1875 34.4128125 26.1875 37.1328125 C28.18704746 37.17535606 30.18791636 37.17362033 32.1875 37.1328125 C33.60327477 35.94856924 33.60327477 35.94856924 33.25 32.5703125 C33.229375 31.4359375 33.20875 30.3015625 33.1875 29.1328125 C30.8775 29.1328125 28.5675 29.1328125 26.1875 29.1328125 Z M44.1875 29.1328125 C44.1875 31.7728125 44.1875 34.4128125 44.1875 37.1328125 C46.52044775 37.17522973 48.85452567 37.17374187 51.1875 37.1328125 C52.60327477 35.94856924 52.60327477 35.94856924 52.25 32.5703125 C52.229375 31.4359375 52.20875 30.3015625 52.1875 29.1328125 C49.5475 29.1328125 46.9075 29.1328125 44.1875 29.1328125 Z M53.1875 40.1328125 C53.11601801 41.48525167 53.10350546 42.84115617 53.125 44.1953125 C53.145625 45.4946875 53.16625 46.7940625 53.1875 48.1328125 C50.2175 48.1328125 47.2475 48.1328125 44.1875 48.1328125 C44.1875 50.4428125 44.1875 52.7528125 44.1875 55.1328125 C47.1575 55.1328125 50.1275 55.1328125 53.1875 55.1328125 C53.1875 58.7628125 53.1875 62.3928125 53.1875 66.1328125 C50.2175 66.1328125 47.2475 66.1328125 44.1875 66.1328125 C44.1875 69.1028125 44.1875 72.0728125 44.1875 75.1328125 C41.2175 75.1328125 38.2475 75.1328125 35.1875 75.1328125 C35.1875 78.1028125 35.1875 81.0728125 35.1875 84.1328125 C31.5575 84.1328125 27.9275 84.1328125 24.1875 84.1328125 C24.1875 81.1628125 24.1875 78.1928125 24.1875 75.1328125 C21.85455225 75.09039527 19.52047433 75.09188313 17.1875 75.1328125 C15.98188816 76.11549109 15.98188816 76.11549109 16.08984375 77.98046875 C16.10144531 78.71136719 16.11304688 79.44226563 16.125 80.1953125 C16.145625 81.4946875 16.16625 82.7940625 16.1875 84.1328125 C14.5375 84.1328125 12.8875 84.1328125 11.1875 84.1328125 C10.64442983 125.09787842 10.64442983 125.09787842 18.1875 165.1328125 C18.43161621 165.93847656 18.67573242 166.74414062 18.92724609 167.57421875 C20.39590899 172.22380534 22.16239327 176.6966482 24.1875 181.1328125 C24.70376953 182.27073242 24.70376953 182.27073242 25.23046875 183.43164062 C27.48509619 188.36413259 29.81052667 193.25820729 32.1875 198.1328125 C32.8475 198.1328125 33.5075 198.1328125 34.1875 198.1328125 C34.4040625 199.0609375 34.4040625 199.0609375 34.625 200.0078125 C35.11902225 202.16539572 35.11902225 202.16539572 36.1875 204.1328125 C36.8475 204.1328125 37.5075 204.1328125 38.1875 204.1328125 C38.4246875 204.82761719 38.661875 205.52242187 38.90625 206.23828125 C40.4185527 209.65479435 42.43988367 212.49037921 44.6875 215.4453125 C45.09097656 215.99509766 45.49445313 216.54488281 45.91015625 217.11132812 C46.95018691 218.49288701 48.06383454 219.81837548 49.1875 221.1328125 C49.8475 221.1328125 50.5075 221.1328125 51.1875 221.1328125 C51.1875 221.7928125 51.1875 222.4528125 51.1875 223.1328125 C51.8475 223.1328125 52.5075 223.1328125 53.1875 223.1328125 C53.1875 223.7928125 53.1875 224.4528125 53.1875 225.1328125 C53.8475 225.1328125 54.5075 225.1328125 55.1875 225.1328125 C55.1875 225.7928125 55.1875 226.4528125 55.1875 227.1328125 C55.8475 227.1328125 56.5075 227.1328125 57.1875 227.1328125 C57.1875 227.7928125 57.1875 228.4528125 57.1875 229.1328125 C58.67176233 230.71473068 58.67176233 230.71473068 60.5625 232.2578125 C61.18898437 232.79664063 61.81546875 233.33546875 62.4609375 233.890625 C64.10358428 235.32748397 64.10358428 235.32748397 66.1875 235.1328125 C66.1875 235.7928125 66.1875 236.4528125 66.1875 237.1328125 C67.8375 237.7928125 69.4875 238.4528125 71.1875 239.1328125 C71.1875 239.7928125 71.1875 240.4528125 71.1875 241.1328125 C71.8475 241.1328125 72.5075 241.1328125 73.1875 241.1328125 C73.1875 241.7928125 73.1875 242.4528125 73.1875 243.1328125 C75.1675 243.7928125 77.1475 244.4528125 79.1875 245.1328125 C79.1875 245.7928125 79.1875 246.4528125 79.1875 247.1328125 C81.45287404 248.64306186 83.70623666 250.02783476 86.0625 251.3828125 C87.44802226 252.19383005 88.83343878 253.00502827 90.21875 253.81640625 C90.899375 254.2119873 91.58 254.60756836 92.28125 255.01513672 C94.73286391 256.4525712 97.14577076 257.95015248 99.5625 259.4453125 C107.39601272 264.5776403 107.39601272 264.5776403 116.25 265.6328125 C117.219375 265.1378125 118.18875 264.6428125 119.1875 264.1328125 C120.92 263.3284375 120.92 263.3284375 122.6875 262.5078125 C132.16146119 257.60934393 141.24314897 252.24870544 150.0625 246.2578125 C150.77083984 245.78142334 151.47917969 245.30503418 152.20898438 244.81420898 C153.90724151 243.64129229 155.55331611 242.39346864 157.1875 241.1328125 C157.1875 240.4728125 157.1875 239.8128125 157.1875 239.1328125 C157.73921875 238.8853125 158.2909375 238.6378125 158.859375 238.3828125 C161.63886707 236.89046776 163.9689707 235.09608727 166.4375 233.1328125 C167.32953125 232.4315625 168.2215625 231.7303125 169.140625 231.0078125 C169.81609375 230.3890625 170.4915625 229.7703125 171.1875 229.1328125 C171.1875 228.4728125 171.1875 227.8128125 171.1875 227.1328125 C171.8475 227.1328125 172.5075 227.1328125 173.1875 227.1328125 C175.73460485 224.67037596 177.91978067 221.85152292 180.1875 219.1328125 C180.98800781 218.19566406 181.78851563 217.25851562 182.61328125 216.29296875 C183.42152344 215.33261719 184.22976563 214.37226563 185.0625 213.3828125 C185.82304687 212.48046875 186.58359375 211.578125 187.3671875 210.6484375 C189.03779593 208.33969967 189.78497234 206.91155183 190.1875 204.1328125 C190.8475 204.1328125 191.5075 204.1328125 192.1875 204.1328125 C193.1775 201.1628125 193.1775 201.1628125 194.1875 198.1328125 C194.8475 198.1328125 195.5075 198.1328125 196.1875 198.1328125 C212.08120364 166.27476654 217.11142231 135.91089685 217.00415039 100.5480957 C216.9922548 96.13597023 217.04080306 91.72662616 217.10361195 87.31501293 C217.14411985 83.88078426 217.14799165 80.44724315 217.14121056 77.01281166 C217.14340731 75.38409099 217.15819454 73.75533396 217.18616676 72.12685204 C217.68156014 63.59648798 217.68156014 63.59648798 214.52423096 56.09706116 C212.44257123 54.75504006 210.53136992 53.91448271 208.1875 53.1328125 C207.28531738 52.67398682 206.38313477 52.21516113 205.45361328 51.74243164 C204.64649902 51.38785889 203.83938477 51.03328613 203.0078125 50.66796875 C202.08822754 50.26336426 201.16864258 49.85875977 200.22119141 49.44189453 C199.26132324 49.03052246 198.30145508 48.61915039 197.3125 48.1953125 C196.3023584 47.7607373 195.2922168 47.32616211 194.25146484 46.87841797 C179.93764446 40.81102005 165.43753251 36.18957428 150.1875 33.1328125 C149.40455566 32.95476074 148.62161133 32.77670898 147.81494141 32.59326172 C138.09342718 30.63001061 128.28638603 30.76064631 118.41015625 30.76220703 C115.35358353 30.75787078 112.29850252 30.72156346 109.2421875 30.68359375 C79.71231651 30.21799343 79.71231651 30.21799343 53.1875 40.1328125 Z M16.1875 39.1328125 C16.1875 41.4428125 16.1875 43.7528125 16.1875 46.1328125 C18.52044775 46.17522973 20.85452567 46.17374187 23.1875 46.1328125 C24.54368499 45.00747145 24.54368499 45.00747145 24.25 42.0703125 C24.229375 41.1009375 24.20875 40.1315625 24.1875 39.1328125 C21.5475 39.1328125 18.9075 39.1328125 16.1875 39.1328125 Z M35.1875 39.1328125 C35.1875 41.4428125 35.1875 43.7528125 35.1875 46.1328125 C37.4975 46.1328125 39.8075 46.1328125 42.1875 46.1328125 C42.1875 43.8228125 42.1875 41.5128125 42.1875 39.1328125 C39.8775 39.1328125 37.5675 39.1328125 35.1875 39.1328125 Z M26.1875 48.1328125 C26.1875 50.4428125 26.1875 52.7528125 26.1875 55.1328125 C28.18704746 55.17535606 30.18791636 55.17362033 32.1875 55.1328125 C33.54368499 54.00747145 33.54368499 54.00747145 33.25 51.0703125 C33.229375 50.1009375 33.20875 49.1315625 33.1875 48.1328125 C30.8775 48.1328125 28.5675 48.1328125 26.1875 48.1328125 Z M16.1875 57.1328125 C16.1875 59.7728125 16.1875 62.4128125 16.1875 65.1328125 C18.52044775 65.17522973 20.85452567 65.17374187 23.1875 65.1328125 C24.60327477 63.94856924 24.60327477 63.94856924 24.25 60.5703125 C24.229375 59.4359375 24.20875 58.3015625 24.1875 57.1328125 C21.5475 57.1328125 18.9075 57.1328125 16.1875 57.1328125 Z M35.1875 57.1328125 C35.1875 59.7728125 35.1875 62.4128125 35.1875 65.1328125 C38.6525 64.6378125 38.6525 64.6378125 42.1875 64.1328125 C42.1875 61.8228125 42.1875 59.5128125 42.1875 57.1328125 C39.8775 57.1328125 37.5675 57.1328125 35.1875 57.1328125 Z M7.1875 66.1328125 C7.1875 68.4428125 7.1875 70.7528125 7.1875 73.1328125 C9.52044775 73.17522973 11.85452567 73.17374187 14.1875 73.1328125 C15.54368499 72.00747145 15.54368499 72.00747145 15.25 69.0703125 C15.229375 68.1009375 15.20875 67.1315625 15.1875 66.1328125 C12.5475 66.1328125 9.9075 66.1328125 7.1875 66.1328125 Z M26.1875 66.1328125 C26.1875 68.4428125 26.1875 70.7528125 26.1875 73.1328125 C28.4975 73.1328125 30.8075 73.1328125 33.1875 73.1328125 C33.1875 70.8228125 33.1875 68.5128125 33.1875 66.1328125 C30.8775 66.1328125 28.5675 66.1328125 26.1875 66.1328125 Z " fill="#151515" transform="translate(135.8125,112.8671875)"/>
<path d="M0 0 C3.29011963 1.8717125 6.10199221 4.15486665 8.94921875 6.625 C9.49900391 7.09292969 10.04878906 7.56085938 10.61523438 8.04296875 C11.96068284 9.18952483 13.29939775 10.34397451 14.63671875 11.5 C15.29671875 9.52 15.95671875 7.54 16.63671875 5.5 C18.78248512 5.47314062 20.9283452 5.45366912 23.07421875 5.4375 C24.26917969 5.42589844 25.46414063 5.41429687 26.6953125 5.40234375 C29.63671875 5.5 29.63671875 5.5 30.63671875 6.5 C30.61774503 8.54494586 30.59783661 10.58988858 30.57250977 12.63476562 C30.39045987 20.49940711 30.39045987 20.49940711 33.92578125 27.1796875 C36.6403876 29.03612684 36.6403876 29.03612684 39.484375 30.40625 C40.19464844 30.7671875 40.90492188 31.128125 41.63671875 31.5 C41.63671875 32.16 41.63671875 32.82 41.63671875 33.5 C42.95671875 34.16 44.27671875 34.82 45.63671875 35.5 C45.32421875 38.375 45.32421875 38.375 44.63671875 41.5 C41.63671875 43.5 41.63671875 43.5 37.63671875 43.5 C37.63671875 42.84 37.63671875 42.18 37.63671875 41.5 C36.97671875 41.5 36.31671875 41.5 35.63671875 41.5 C35.63671875 49.75 35.63671875 58 35.63671875 66.5 C27.38671875 66.5 19.13671875 66.5 10.63671875 66.5 C10.96671875 77.39 11.29671875 88.28 11.63671875 99.5 C11.96671875 99.17 12.29671875 98.84 12.63671875 98.5 C16.90570672 98.13549297 21.1802488 98.05730033 25.46240234 97.98510742 C26.89807709 97.95367282 28.33350044 97.90613285 29.76806641 97.84155273 C37.18663675 97.51231607 43.23906356 97.29939432 49.13671875 102.41015625 C52.63671875 106.02810168 52.63671875 106.02810168 52.63671875 108.5 C53.29671875 108.5 53.95671875 108.5 54.63671875 108.5 C54.63671875 109.16 54.63671875 109.82 54.63671875 110.5 C55.29671875 110.5 55.95671875 110.5 56.63671875 110.5 C56.63671875 111.16 56.63671875 111.82 56.63671875 112.5 C57.29671875 112.5 57.95671875 112.5 58.63671875 112.5 C58.63671875 113.16 58.63671875 113.82 58.63671875 114.5 C59.23484375 114.78875 59.83296875 115.0775 60.44921875 115.375 C62.63671875 116.5 62.63671875 116.5 65.63671875 118.5 C66.81234375 118.644375 67.98796875 118.78875 69.19921875 118.9375 C70.90078125 119.2159375 70.90078125 119.2159375 72.63671875 119.5 C75.11014141 123.21013399 75.02175361 125.11060262 74.63671875 129.5 C73.63671875 131.9375 73.63671875 131.9375 71.63671875 133.5 C66.61521901 134.29706345 66.61521901 134.29706345 63.63671875 133.5 C61.13671875 130.8125 61.13671875 130.8125 59.63671875 127.5 C59.67651855 126.68821289 59.71631836 125.87642578 59.75732422 125.04003906 C59.59909759 121.70767099 58.57218441 120.84074322 56.20703125 118.546875 C55.49417969 117.845625 54.78132813 117.144375 54.046875 116.421875 C52.91572266 115.34679687 52.91572266 115.34679687 51.76171875 114.25 C51.01535156 113.5178125 50.26898438 112.785625 49.5 112.03125 C45.88704098 108.33338105 45.88704098 108.33338105 41.63671875 105.5 C41.63671875 104.84 41.63671875 104.18 41.63671875 103.5 C31.73671875 103.5 21.83671875 103.5 11.63671875 103.5 C10.97671875 104.82 10.31671875 106.14 9.63671875 107.5 C8.15660504 107.19201674 6.6776455 106.878482 5.19921875 106.5625 C4.37550781 106.38847656 3.55179688 106.21445312 2.703125 106.03515625 C0.63671875 105.5 0.63671875 105.5 -0.36328125 104.5 C-0.46150869 103.03194708 -0.49126495 101.5592254 -0.49267578 100.08789062 C-0.49582794 99.15021851 -0.4989801 98.21254639 -0.50222778 97.24645996 C-0.50020355 96.22669067 -0.49817932 95.20692139 -0.49609375 94.15625 C-0.49705048 93.11682251 -0.4980072 92.07739502 -0.49899292 91.00646973 C-0.49967488 88.80395446 -0.49781952 86.60143721 -0.49365234 84.39892578 C-0.48830433 81.01460281 -0.49359684 77.63041256 -0.5 74.24609375 C-0.49933922 72.11197887 -0.49805806 69.97786408 -0.49609375 67.84375 C-0.49811798 66.82398071 -0.50014221 65.80421143 -0.50222778 64.75354004 C-0.49749954 63.34703186 -0.49749954 63.34703186 -0.49267578 61.91210938 C-0.49188019 61.08239624 -0.49108459 60.25268311 -0.49026489 59.39782715 C-0.36328125 57.5 -0.36328125 57.5 0.63671875 56.5 C2.49041486 56.41262355 4.34739416 56.39301847 6.203125 56.40234375 C7.32783203 56.40556641 8.45253906 56.40878906 9.61132812 56.41210938 C10.79533203 56.42048828 11.97933594 56.42886719 13.19921875 56.4375 C14.38708984 56.44201172 15.57496094 56.44652344 16.79882812 56.45117188 C19.74484101 56.46300325 22.69075556 56.47948713 25.63671875 56.5 C25.5284375 55.14068359 25.5284375 55.14068359 25.41796875 53.75390625 C25.32515625 52.53574219 25.23234375 51.31757813 25.13671875 50.0625 C24.98396484 48.14630859 24.98396484 48.14630859 24.828125 46.19140625 C24.67199457 43.18031937 24.78255262 40.48318166 25.07421875 37.5 C25.23021667 35.41323797 25.23021667 35.41323797 24.63671875 33.5 C22.6966951 31.52586604 20.747812 30.13019745 18.38671875 28.69140625 C17.80921875 28.29824219 17.23171875 27.90507812 16.63671875 27.5 C16.63671875 26.84 16.63671875 26.18 16.63671875 25.5 C15.97671875 25.29375 15.31671875 25.0875 14.63671875 24.875 C10.56491689 23.00875748 6.94874877 20.52438473 3.63671875 17.5 C3.63671875 16.84 3.63671875 16.18 3.63671875 15.5 C-1.4133772 14.56213918 -1.4133772 14.56213918 -6.36328125 15.5 C-6.36328125 16.16 -6.36328125 16.82 -6.36328125 17.5 C-8.01328125 18.16 -9.66328125 18.82 -11.36328125 19.5 C-11.36328125 20.16 -11.36328125 20.82 -11.36328125 21.5 C-13.04117999 22.85759933 -14.78271213 24.13711805 -16.55078125 25.375 C-18.49333587 26.7428497 -20.4308766 28.11784823 -22.36328125 29.5 C-23.30300781 30.11875 -24.24273437 30.7375 -25.2109375 31.375 C-27.63111245 33.34372244 -27.63111245 33.34372244 -27.81640625 36.3828125 C-27.71585938 37.98769531 -27.71585938 37.98769531 -27.61328125 39.625 C-27.30448746 45.36575732 -27.69724853 50.80441979 -28.36328125 56.5 C-27.61119385 56.49476318 -26.85910645 56.48952637 -26.08422852 56.48413086 C-22.69808783 56.46342773 -19.31196041 56.45036123 -15.92578125 56.4375 C-14.74177734 56.42912109 -13.55777344 56.42074219 -12.33789062 56.41210938 C-11.21318359 56.40888672 -10.08847656 56.40566406 -8.9296875 56.40234375 C-7.88756104 56.39710693 -6.84543457 56.39187012 -5.77172852 56.38647461 C-3.36328125 56.5 -3.36328125 56.5 -2.36328125 57.5 C-2.27024107 58.97354348 -2.2458186 60.45150591 -2.24975586 61.92797852 C-2.24983139 62.86887833 -2.24990692 63.80977814 -2.24998474 64.77919006 C-2.25514603 65.80209641 -2.26030731 66.82500275 -2.265625 67.87890625 C-2.26703995 68.92070541 -2.2684549 69.96250458 -2.26991272 71.03587341 C-2.27553045 74.37811094 -2.28808595 77.72028257 -2.30078125 81.0625 C-2.30579397 83.32226466 -2.31035727 85.58203037 -2.31445312 87.84179688 C-2.32550564 93.39455391 -2.34226101 98.94727225 -2.36328125 104.5 C-3.62935732 105.03229326 -4.90138537 105.55044544 -6.17578125 106.0625 C-6.88347656 106.35253906 -7.59117187 106.64257812 -8.3203125 106.94140625 C-10.36328125 107.5 -10.36328125 107.5 -13.36328125 106.5 C-13.36328125 93.3 -13.36328125 80.1 -13.36328125 66.5 C-21.61328125 66.5 -29.86328125 66.5 -38.36328125 66.5 C-38.69328125 58.58 -39.02328125 50.66 -39.36328125 42.5 C-41.83828125 42.995 -41.83828125 42.995 -44.36328125 43.5 C-46.73828125 41.875 -46.73828125 41.875 -48.36328125 39.5 C-48.55078125 37.125 -48.55078125 37.125 -47.36328125 34.5 C-43.00039647 29.72936898 -37.24345292 26.16235744 -32.01171875 22.4296875 C-30.18198384 21.09651781 -28.39686991 19.70069148 -26.65234375 18.2578125 C-24.36328125 16.5 -24.36328125 16.5 -22.36328125 16.5 C-22.36328125 15.84 -22.36328125 15.18 -22.36328125 14.5 C-20.76946619 13.20409429 -19.11003343 11.98847306 -17.42578125 10.8125 C-12.86643018 7.61449957 -8.60107565 4.24679124 -4.43359375 0.5546875 C-2.36328125 -0.5 -2.36328125 -0.5 0 0 Z M66.63671875 125.5 C66.63671875 126.49 66.63671875 127.48 66.63671875 128.5 C67.62671875 128.17 68.61671875 127.84 69.63671875 127.5 C69.30671875 126.84 68.97671875 126.18 68.63671875 125.5 C67.97671875 125.5 67.31671875 125.5 66.63671875 125.5 Z " fill="#1A1A1A" transform="translate(251.36328125,167.5)"/>
<path d="M0 0 C3.3125 2.1875 3.3125 2.1875 4.3125 5.1875 C4.95703125 5.49945313 5.6015625 5.81140625 6.265625 6.1328125 C8.83811509 7.4583322 9.16879541 8.35159607 10.0625 11.0625 C11.77127351 16.72454411 11.58012478 22.3294909 11.3125 28.1875 C12.26125 28.27 13.21 28.3525 14.1875 28.4375 C17.3125 29.1875 17.3125 29.1875 18.48461914 30.74243164 C19.64206936 34.16085216 19.65733548 37.48783908 19.68359375 41.05859375 C19.69713646 42.19760887 19.69713646 42.19760887 19.71095276 43.3596344 C19.72543133 44.96245393 19.73433605 46.56533224 19.73803711 48.16821289 C19.74994551 50.61380855 19.79915762 53.05688876 19.84960938 55.50195312 C19.85907323 57.06248774 19.86630845 58.62303778 19.87109375 60.18359375 C19.89062607 60.91082138 19.91015839 61.63804901 19.93028259 62.38731384 C19.89862432 65.96810787 19.37223766 68.09101051 17.48071289 71.14624023 C12.76842167 74.18234002 8.56123557 73.9044552 3.0625 73.8515625 C1.97163086 73.85634613 0.88076172 73.86112976 -0.24316406 73.86605835 C-2.54623865 73.86945613 -4.84936155 73.86026243 -7.15234375 73.83935547 C-10.67557417 73.8125906 -14.19561856 73.83911001 -17.71875 73.87109375 C-19.95834036 73.86778963 -22.19792874 73.86138337 -24.4375 73.8515625 C-25.48969727 73.86168365 -26.54189453 73.87180481 -27.62597656 73.88223267 C-32.23797428 73.80840107 -34.91856208 73.6829219 -38.85571289 71.14624023 C-41.15607229 67.43065239 -41.36000978 64.42491767 -41.24609375 60.18359375 C-41.24376236 59.42329361 -41.24143097 58.66299347 -41.23902893 57.87965393 C-41.2293185 56.27845986 -41.20759336 54.67729876 -41.17456055 53.07641602 C-41.12508494 50.62920133 -41.11307356 48.18399826 -41.10742188 45.73632812 C-41.09333673 44.177062 -41.07713262 42.61781328 -41.05859375 41.05859375 C-41.05323105 40.32934189 -41.04786835 39.60009003 -41.04234314 38.84873962 C-40.8847226 32.10233249 -40.8847226 32.10233249 -38.6875 29.1875 C-35.5625 28.4375 -35.5625 28.4375 -32.6875 28.1875 C-32.72230469 27.42566406 -32.75710937 26.66382813 -32.79296875 25.87890625 C-32.99241215 18.27156504 -33.1604617 11.11149568 -27.8828125 5.1484375 C-20.03752788 -2.04554047 -10.06099339 -4.73992649 0 0 Z M-18.6875 10.1875 C-21.4914632 13.01163559 -22.60960078 14.52301966 -23.078125 18.51953125 C-23.03171875 19.66808594 -22.9853125 20.81664062 -22.9375 22 C-22.855 24.041875 -22.7725 26.08375 -22.6875 28.1875 C-14.7675 28.1875 -6.8475 28.1875 1.3125 28.1875 C2.2529353 19.37118601 2.2529353 19.37118601 -0.875 11.5 C-6.98470692 6.4764632 -11.83820598 6.04938486 -18.6875 10.1875 Z M-14.625 42.3125 C-15.93822311 44.21228877 -15.93822311 44.21228877 -15.4375 46.8125 C-14.91004355 49.1187407 -14.91004355 49.1187407 -13.6875 50.1875 C-13.61544489 51.87358966 -13.60363932 53.56250659 -13.625 55.25 C-13.63402344 56.16910156 -13.64304688 57.08820313 -13.65234375 58.03515625 C-13.66394531 58.74542969 -13.67554688 59.45570313 -13.6875 60.1875 C-11.7075 60.1875 -9.7275 60.1875 -7.6875 60.1875 C-7.71070313 59.48882812 -7.73390625 58.79015625 -7.7578125 58.0703125 C-7.78488281 56.70519531 -7.78488281 56.70519531 -7.8125 55.3125 C-7.83570313 54.40757812 -7.85890625 53.50265625 -7.8828125 52.5703125 C-7.6875 50.1875 -7.6875 50.1875 -5.6875 48.1875 C-6.00948966 45.08823181 -6.00948966 45.08823181 -6.6875 42.1875 C-10.78292781 41.04546048 -10.78292781 41.04546048 -14.625 42.3125 Z " fill="#0E0E0E" transform="translate(260.6875,277.8125)"/>
<path d="M0 0 C0.721875 0.00257812 1.44375 0.00515625 2.1875 0.0078125 C2.909375 0.00523438 3.63125 0.00265625 4.375 0 C6.1875 0.1328125 6.1875 0.1328125 7.1875 1.1328125 C7.25929964 2.65209288 7.27142007 4.17448732 7.25 5.6953125 C7.24097656 6.52160156 7.23195312 7.34789063 7.22265625 8.19921875 C7.21105469 8.83730469 7.19945312 9.47539063 7.1875 10.1328125 C10.6525 9.6378125 10.6525 9.6378125 14.1875 9.1328125 C14.5175 6.1628125 14.8475 3.1928125 15.1875 0.1328125 C16.83324566 0.10593099 18.47911413 0.08647127 20.125 0.0703125 C21.04152344 0.05871094 21.95804688 0.04710938 22.90234375 0.03515625 C25.1875 0.1328125 25.1875 0.1328125 26.1875 1.1328125 C26.33007189 4.46899481 26.22978157 7.79256856 26.1875 11.1328125 C22.8875 11.1328125 19.5875 11.1328125 16.1875 11.1328125 C16.1875 16.7428125 16.1875 22.3528125 16.1875 28.1328125 C18.8275 28.1328125 21.4675 28.1328125 24.1875 28.1328125 C24.1875 25.1628125 24.1875 22.1928125 24.1875 19.1328125 C27.1575 19.1328125 30.1275 19.1328125 33.1875 19.1328125 C33.1875 16.1628125 33.1875 13.1928125 33.1875 10.1328125 C33.5175 10.1328125 33.8475 10.1328125 34.1875 10.1328125 C34.6825 18.5478125 34.6825 18.5478125 35.1875 27.1328125 C34.8575 27.1328125 34.5275 27.1328125 34.1875 27.1328125 C34.1875 24.8228125 34.1875 22.5128125 34.1875 20.1328125 C30.2275 20.6278125 30.2275 20.6278125 26.1875 21.1328125 C25.8575 23.4428125 25.5275 25.7528125 25.1875 28.1328125 C27.8275 28.1328125 30.4675 28.1328125 33.1875 28.1328125 C33.1875 28.4628125 33.1875 28.7928125 33.1875 29.1328125 C30.8775 29.1328125 28.5675 29.1328125 26.1875 29.1328125 C26.1875 31.7728125 26.1875 34.4128125 26.1875 37.1328125 C25.8575 37.1328125 25.5275 37.1328125 25.1875 37.1328125 C25.1875 34.4928125 25.1875 31.8528125 25.1875 29.1328125 C21.2275 29.6278125 21.2275 29.6278125 17.1875 30.1328125 C16.8575 32.1128125 16.5275 34.0928125 16.1875 36.1328125 C15.8575 36.1328125 15.5275 36.1328125 15.1875 36.1328125 C15.1875 33.8228125 15.1875 31.5128125 15.1875 29.1328125 C12.2175 29.1328125 9.2475 29.1328125 6.1875 29.1328125 C6.1875 26.1628125 6.1875 23.1928125 6.1875 20.1328125 C3.2175 20.1328125 0.2475 20.1328125 -2.8125 20.1328125 C-2.83933697 16.98692306 -2.85925902 13.84125979 -2.875 10.6953125 C-2.88337891 9.79748047 -2.89175781 8.89964844 -2.90039062 7.97460938 C-2.90361328 7.12060547 -2.90683594 6.26660156 -2.91015625 5.38671875 C-2.91801147 4.20057983 -2.91801147 4.20057983 -2.92602539 2.99047852 C-2.77332271 0.49173716 -2.49687559 0.18296071 0 0 Z " fill="#2E2E2D" transform="translate(135.8125,112.8671875)"/>
<path d="M0 0 C0.721875 0.00257813 1.44375 0.00515625 2.1875 0.0078125 C2.909375 0.00523437 3.63125 0.00265625 4.375 0 C6.1875 0.1328125 6.1875 0.1328125 7.1875 1.1328125 C7.32865161 3.80340101 7.22997107 6.45713488 7.1875 9.1328125 C8.486875 9.1121875 9.78625 9.0915625 11.125 9.0703125 C12.47915633 9.04881796 13.83506083 9.06133051 15.1875 9.1328125 C16.1875 10.1328125 16.1875 10.1328125 16.28515625 13.94921875 C16.27848089 15.53127932 16.26651875 17.11332409 16.25 18.6953125 C16.24548828 19.50162109 16.24097656 20.30792969 16.23632812 21.13867188 C16.22450518 23.13675006 16.20656914 25.13479033 16.1875 27.1328125 C10.4375 29.1328125 10.4375 29.1328125 8.1875 29.1328125 C7.8575 31.7728125 7.5275 34.4128125 7.1875 37.1328125 C-1.2275 37.6278125 -1.2275 37.6278125 -9.8125 38.1328125 C-10.1425 40.7728125 -10.4725 43.4128125 -10.8125 46.1328125 C-13.7825 46.1328125 -16.7525 46.1328125 -19.8125 46.1328125 C-19.8125 43.1628125 -19.8125 40.1928125 -19.8125 37.1328125 C-17.1725 37.1328125 -14.5325 37.1328125 -11.8125 37.1328125 C-11.3175 32.6778125 -11.3175 32.6778125 -10.8125 28.1328125 C-5.5325 27.8028125 -0.2525 27.4728125 5.1875 27.1328125 C5.8475 21.5228125 6.5075 15.9128125 7.1875 10.1328125 C3.8875 10.1328125 0.5875 10.1328125 -2.8125 10.1328125 C-2.91015625 3.19921875 -2.91015625 3.19921875 -2.8125 1.1328125 C-1.8125 0.1328125 -1.8125 0.1328125 0 0 Z " fill="#101010" transform="translate(117.8125,131.8671875)"/>
<path d="M0 0 C0.33 0 0.66 0 1 0 C1.33 10.89 1.66 21.78 2 33 C2.495 32.505 2.495 32.505 3 32 C7.26898797 31.63549297 11.54353005 31.55730033 15.82568359 31.48510742 C17.26135834 31.45367282 18.69678169 31.40613285 20.13134766 31.34155273 C27.549918 31.01231607 33.60234481 30.79939432 39.5 35.91015625 C43 39.52810168 43 39.52810168 43 42 C43.66 42 44.32 42 45 42 C45 42.66 45 43.32 45 44 C45.66 44 46.32 44 47 44 C47 44.66 47 45.32 47 46 C47.66 46 48.32 46 49 46 C49 46.66 49 47.32 49 48 C49.598125 48.28875 50.19625 48.5775 50.8125 48.875 C53 50 53 50 56 52 C57.175625 52.144375 58.35125 52.28875 59.5625 52.4375 C61.2640625 52.7159375 61.2640625 52.7159375 63 53 C65.47342266 56.71013399 65.38503486 58.61060262 65 63 C64 65.4375 64 65.4375 62 67 C56.97850026 67.79706345 56.97850026 67.79706345 54 67 C51.5 64.3125 51.5 64.3125 50 61 C50.0397998 60.18821289 50.07959961 59.37642578 50.12060547 58.54003906 C49.96237884 55.20767099 48.93546566 54.34074322 46.5703125 52.046875 C45.50103516 50.995 45.50103516 50.995 44.41015625 49.921875 C43.65605469 49.20515625 42.90195312 48.4884375 42.125 47.75 C41.37863281 47.0178125 40.63226563 46.285625 39.86328125 45.53125 C36.25032223 41.83338105 36.25032223 41.83338105 32 39 C32 38.34 32 37.68 32 37 C27.76419747 36.92592094 23.52873659 36.87143304 19.29248047 36.83520508 C17.85100742 36.82010517 16.40958041 36.79962342 14.96826172 36.77368164 C12.89799657 36.7373487 10.82833793 36.72028671 8.7578125 36.70703125 C7.5114502 36.6913208 6.26508789 36.67561035 4.98095703 36.65942383 C3.99724121 36.77181396 3.01352539 36.8842041 2 37 C1.34 37.99 0.68 38.98 0 40 C0 26.8 0 13.6 0 0 Z M57 59 C57 59.99 57 60.98 57 62 C57.99 61.67 58.98 61.34 60 61 C59.67 60.34 59.34 59.68 59 59 C58.34 59 57.68 59 57 59 Z " fill="#303030" transform="translate(261,234)"/>
<path d="M0 0 C2.0234375 0.46875 2.0234375 0.46875 4.0234375 3.46875 C4.15089355 4.57299316 4.27834961 5.67723633 4.40966797 6.81494141 C5.48012131 13.18741741 9.82814502 17.26854442 14.1484375 21.84375 C14.61687073 22.34553772 15.08530396 22.84732544 15.56793213 23.36431885 C22.82191473 30.87373408 29.19451564 33.95895482 39.65576172 34.35791016 C45.80164789 34.39974773 51.90822923 34.09904821 58.0234375 33.46875 C58.5184375 35.94375 58.5184375 35.94375 59.0234375 38.46875 C54.32804716 38.667837 49.63515565 38.81227352 44.93652344 38.90820312 C43.34168673 38.94821926 41.74713955 39.00265506 40.15332031 39.07226562 C26.86652342 39.63766124 26.86652342 39.63766124 22.21484375 36.6875 C20.26431913 34.71228519 18.65161794 32.7089924 17.0234375 30.46875 C16.3634375 30.13875 15.7034375 29.80875 15.0234375 29.46875 C15.0234375 28.80875 15.0234375 28.14875 15.0234375 27.46875 C14.3634375 27.46875 13.7034375 27.46875 13.0234375 27.46875 C13.0234375 26.80875 13.0234375 26.14875 13.0234375 25.46875 C12.3634375 25.46875 11.7034375 25.46875 11.0234375 25.46875 C11.0234375 24.80875 11.0234375 24.14875 11.0234375 23.46875 C10.3634375 23.46875 9.7034375 23.46875 9.0234375 23.46875 C9.0234375 22.80875 9.0234375 22.14875 9.0234375 21.46875 C8.3634375 21.46875 7.7034375 21.46875 7.0234375 21.46875 C7.0234375 20.80875 7.0234375 20.14875 7.0234375 19.46875 C6.3634375 19.46875 5.7034375 19.46875 5.0234375 19.46875 C3.3984375 18.09375 3.3984375 18.09375 2.0234375 16.46875 C2.0234375 15.80875 2.0234375 15.14875 2.0234375 14.46875 C1.40855469 14.50355469 0.79367188 14.53835937 0.16015625 14.57421875 C-1.05220703 14.61482422 -1.05220703 14.61482422 -2.2890625 14.65625 C-3.48982422 14.70845703 -3.48982422 14.70845703 -4.71484375 14.76171875 C-6.9765625 14.46875 -6.9765625 14.46875 -8.7109375 13.13671875 C-10.64922729 10.58224424 -10.91289389 8.65218075 -10.9765625 5.46875 C-8.41701626 0.11697151 -5.43543589 -0.07223171 0 0 Z M-4.9765625 5.46875 C-4.6465625 6.78875 -4.3165625 8.10875 -3.9765625 9.46875 C-3.3165625 9.46875 -2.6565625 9.46875 -1.9765625 9.46875 C-1.9765625 7.81875 -1.9765625 6.16875 -1.9765625 4.46875 C-3.2001693 4.3942144 -3.2001693 4.3942144 -4.9765625 5.46875 Z " fill="#202020" transform="translate(176.9765625,204.53125)"/>
<path d="M0 0 C1.43655854 -0.08131463 2.8744483 -0.13933559 4.3125 -0.1875 C5.51326172 -0.23970703 5.51326172 -0.23970703 6.73828125 -0.29296875 C9 0 9 0 10.76953125 1.296875 C12.82047546 4.13564223 12.35543593 6.62335866 12 10 C11.0625 12.4375 11.0625 12.4375 9 14 C5.97134658 14.32756713 3.03338927 14.22893504 0 14 C0 14.66 0 15.32 0 16 C-1.375 17.625 -1.375 17.625 -3 19 C-3.66 19 -4.32 19 -5 19 C-5 19.66 -5 20.32 -5 21 C-5.66 21 -6.32 21 -7 21 C-7 21.66 -7 22.32 -7 23 C-7.66 23 -8.32 23 -9 23 C-9 23.66 -9 24.32 -9 25 C-9.66 25 -10.32 25 -11 25 C-11 25.66 -11 26.32 -11 27 C-11.66 27 -12.32 27 -13 27 C-13 27.66 -13 28.32 -13 29 C-14.98260426 30.68732277 -16.9832342 32.35366057 -19 34 C-19.495 34.99 -19.495 34.99 -20 36 C-20.66 36 -21.32 36 -22 36 C-22 36.66 -22 37.32 -22 38 C-33.55 38 -45.1 38 -57 38 C-56.67 36.35 -56.34 34.7 -56 33 C-54.62279785 32.99383667 -54.62279785 32.99383667 -53.21777344 32.98754883 C-49.80276072 32.96053816 -46.3895399 32.91142817 -42.97509766 32.84741211 C-41.49897288 32.82425149 -40.02268331 32.80984085 -38.54638672 32.80444336 C-36.42050737 32.79513816 -34.29721232 32.7541254 -32.171875 32.70703125 C-30.2552002 32.68346558 -30.2552002 32.68346558 -28.29980469 32.65942383 C-24.83577291 32.29474105 -24.83577291 32.29474105 -22.66357422 29.56005859 C-22.11459473 28.71523926 -21.56561523 27.87041992 -21 27 C-19.82311258 25.9027709 -18.61454246 24.83841919 -17.375 23.8125 C-7.22633035 16.14079813 -7.22633035 16.14079813 -1.875 5.375 C-1.91625 4.26125 -1.9575 3.1475 -2 2 C-1.34 2 -0.68 2 0 2 C0 1.34 0 0.68 0 0 Z M4 4 C3.67 5.32 3.34 6.64 3 8 C4.32 8 5.64 8 7 8 C7 7.01 7 6.02 7 5 C6.01 4.67 5.02 4.34 4 4 Z " fill="#212121" transform="translate(321,205)"/>
<path d="M0 0 C5.49923749 -0.07411371 10.99818479 -0.12858464 16.49780273 -0.16479492 C18.36894799 -0.17988873 20.24005783 -0.20036589 22.11108398 -0.22631836 C24.79940526 -0.26267593 27.48725913 -0.27972015 30.17578125 -0.29296875 C31.43217155 -0.31619453 31.43217155 -0.31619453 32.71394348 -0.33988953 C38.57308951 -0.34159036 38.57308951 -0.34159036 40.74504089 1.39628601 C42 3 42 3 42 5 C42.66 5 43.32 5 44 5 C44 5.66 44 6.32 44 7 C44.66 7 45.32 7 46 7 C46 7.66 46 8.32 46 9 C46.66 9 47.32 9 48 9 C48 9.66 48 10.32 48 11 C50.97 11.33 53.94 11.66 57 12 C57.66 11.01 58.32 10.02 59 9 C62.05442783 8.1988386 63.95020963 7.70843304 67 8 C70.21010235 10.2738225 71.73898303 11.66228802 72.5 15.5625 C71.87860037 18.59182319 71.30978833 19.91373957 69 22 C65.625 23 65.625 23 62 23 C60.32476605 21.67744688 58.65893182 20.34294481 57 19 C54.86797342 18.68100688 54.86797342 18.68100688 52.5625 18.625 C48.8531311 18.38308464 47.09911104 17.67996109 44.4375 15.0625 C42 12 42 12 42 10 C41.34 10 40.68 10 40 10 C40 9.34 40 8.68 40 8 C36.21085511 5.53446051 32.32226679 5.65368666 27.953125 5.5859375 C27.18192322 5.56657135 26.41072144 5.5472052 25.6161499 5.5272522 C23.16087795 5.46762923 20.70555867 5.42114086 18.25 5.375 C16.58201118 5.33680425 14.91404174 5.29775159 13.24609375 5.2578125 C9.16422057 5.16194209 5.08225507 5.07784765 1 5 C0.67 3.35 0.34 1.7 0 0 Z M63 13 C62.67 14.32 62.34 15.64 62 17 C62.99 16.67 63.98 16.34 65 16 C65 15.01 65 14.02 65 13 C64.34 13 63.68 13 63 13 Z " fill="#242424" transform="translate(264,257)"/>
<path d="M0 0 C1.64510941 0.00015915 3.29022379 0.00585551 4.93530273 0.01586914 C6.23164894 0.01799156 6.23164894 0.01799156 7.55418396 0.02015686 C10.32578941 0.025773 13.09731528 0.0383282 15.86889648 0.05102539 C17.74324428 0.05603831 19.61759334 0.06060158 21.49194336 0.06469727 C26.09679192 0.07574767 30.70158069 0.09302309 35.30639648 0.11352539 C34.97639648 1.76352539 34.64639648 3.41352539 34.30639648 5.11352539 C32.74743652 5.14325439 32.74743652 5.14325439 31.15698242 5.17358398 C27.29524813 5.24974663 23.43388539 5.33844739 19.57250977 5.4309082 C17.90233708 5.46915396 16.23208326 5.50401454 14.56176758 5.53540039 C12.15864092 5.581147 9.75607064 5.63912464 7.35327148 5.69946289 C6.60833435 5.7110141 5.86339722 5.72256531 5.09588623 5.73446655 C1.39391018 5.83948451 -1.59939047 5.95302862 -4.69360352 8.11352539 C-4.98235352 8.69102539 -5.27110352 9.26852539 -5.56860352 9.86352539 C-7.31042632 13.34717101 -9.35206975 16.04366844 -12.69360352 18.11352539 C-16.08916485 18.61018959 -19.28911083 18.4768507 -22.69360352 18.11352539 C-22.9655957 18.75418945 -23.23758789 19.39485352 -23.51782227 20.05493164 C-24.69360352 22.11352539 -24.69360352 22.11352539 -27.50610352 23.05102539 C-31.36130298 23.12661754 -32.84545842 22.71754377 -35.69360352 20.11352539 C-36.81860352 16.73852539 -36.81860352 16.73852539 -36.69360352 13.11352539 C-34.75610352 10.11352539 -34.75610352 10.11352539 -31.69360352 8.11352539 C-28.80502342 8.00160624 -26.55657561 8.48270103 -23.69360352 9.11352539 C-23.36360352 10.43352539 -23.03360352 11.75352539 -22.69360352 13.11352539 C-19.22418805 12.65530071 -16.01965303 12.22220856 -12.69360352 11.11352539 C-12.69360352 10.45352539 -12.69360352 9.79352539 -12.69360352 9.11352539 C-12.03360352 9.11352539 -11.37360352 9.11352539 -10.69360352 9.11352539 C-10.69360352 8.45352539 -10.69360352 7.79352539 -10.69360352 7.11352539 C-10.03360352 7.11352539 -9.37360352 7.11352539 -8.69360352 7.11352539 C-8.69360352 6.45352539 -8.69360352 5.79352539 -8.69360352 5.11352539 C-8.03360352 5.11352539 -7.37360352 5.11352539 -6.69360352 5.11352539 C-6.38422852 4.47415039 -6.07485352 3.83477539 -5.75610352 3.17602539 C-4.18625237 0.12866728 -4.18625237 0.12866728 0 0 Z M-29.69360352 13.11352539 C-30.02360352 14.43352539 -30.35360352 15.75352539 -30.69360352 17.11352539 C-29.70360352 17.60852539 -29.70360352 17.60852539 -28.69360352 18.11352539 C-28.03360352 17.78352539 -27.37360352 17.45352539 -26.69360352 17.11352539 C-26.69360352 16.12352539 -26.69360352 15.13352539 -26.69360352 14.11352539 C-27.68360352 13.78352539 -28.67360352 13.45352539 -29.69360352 13.11352539 Z " fill="#1A1A1A" transform="translate(200.693603515625,256.886474609375)"/>
<path d="M0 0 C0 1.65 0 3.3 0 5 C-0.7842334 4.93603027 -1.5684668 4.87206055 -2.37646484 4.80615234 C-19.55529767 3.39186394 -19.55529767 3.39186394 -34.8984375 9.828125 C-43.51663482 17.59693087 -43.51663482 17.59693087 -47.890625 27.9609375 C-47.92671875 28.96382813 -47.9628125 29.96671875 -48 31 C-48.33 31.66 -48.66 32.32 -49 33 C-49.66 33 -50.32 33 -51 33 C-51 33.66 -51 34.32 -51 35 C-58.37531486 35.3627204 -58.37531486 35.3627204 -60.9375 33.875 C-62.46849826 31.17323836 -62.8757742 29.10564495 -63 26 C-62.0625 23.1875 -62.0625 23.1875 -60 21 C-58.06822381 20.83629015 -56.13532801 20.67833029 -54.19921875 20.578125 C-50.36010096 19.56890754 -48.21993551 16.61183926 -45.6640625 13.71484375 C-45.11492187 13.14894531 -44.56578125 12.58304687 -44 12 C-43.34 12 -42.68 12 -42 12 C-42 11.34 -42 10.68 -42 10 C-41.34 10 -40.68 10 -40 10 C-40 9.34 -40 8.68 -40 8 C-39.34 8 -38.68 8 -38 8 C-38 7.34 -38 6.68 -38 6 C-37.34 6 -36.68 6 -36 6 C-36 5.34 -36 4.68 -36 4 C-35.34 4 -34.68 4 -34 4 C-33.34 2.68 -32.68 1.36 -32 0 C-27.7643915 -0.16752496 -23.52859426 -0.32809332 -19.29248047 -0.48217773 C-17.85100177 -0.5355959 -16.40959259 -0.59092518 -14.96826172 -0.64819336 C-12.89826447 -0.73010997 -10.82811573 -0.80518359 -8.7578125 -0.87890625 C-6.88826904 -0.94960327 -6.88826904 -0.94960327 -4.98095703 -1.02172852 C-2 -1 -2 -1 0 0 Z M-57 27 C-56.67 27.99 -56.34 28.98 -56 30 C-55.34 30 -54.68 30 -54 30 C-54 29.01 -54 28.02 -54 27 C-54.99 27 -55.98 27 -57 27 Z " fill="#252525" transform="translate(236,266)"/>
<path d="M0 0 C3.17468977 -0.45352711 4.98984447 -0.69511624 8 0 C10.5625 2.125 10.5625 2.125 12 5 C11.93611062 8.19446895 11.56489338 10.13779432 9.8125 12.8125 C7.21649819 14.51332877 5.07955322 14.81145593 2 15 C-0.74954328 14.03394425 -1.69007757 13.61984486 -3 11 C-5.32156597 10.59270772 -7.6568787 10.25561323 -10 10 C-10.66 11.32 -11.32 12.64 -12 14 C-12.66 14 -13.32 14 -14 14 C-14 14.66 -14 15.32 -14 16 C-14.66 16 -15.32 16 -16 16 C-16 16.66 -16 17.32 -16 18 C-18.86128825 21.12616179 -21.09718427 22.26108124 -25.23950195 22.45410156 C-26.90589594 22.4534726 -28.57237945 22.43112785 -30.23828125 22.390625 C-31.11904831 22.38496521 -31.99981537 22.37930542 -32.90727234 22.37347412 C-35.70957693 22.3511533 -38.51058446 22.30096577 -41.3125 22.25 C-43.21677836 22.22992941 -45.12107684 22.21167961 -47.02539062 22.1953125 C-51.68409053 22.15130267 -56.34182565 22.08230549 -61 22 C-61.33 20.35 -61.66 18.7 -62 17 C-60.8761792 17.02731201 -59.7523584 17.05462402 -58.59448242 17.08276367 C-54.37638256 17.17039555 -50.1605654 17.1841648 -45.94165039 17.17700195 C-44.12506122 17.18392628 -42.30842889 17.21019547 -40.49243164 17.25708008 C-29.30799367 17.87995418 -29.30799367 17.87995418 -19.45947266 13.50415039 C-17.47606356 11.58714349 -15.89676422 9.6472656 -14.18481445 7.45605469 C-12 5 -12 5 -9.35400391 4.18603516 C-7.83288756 4.10620889 -6.3081289 4.07470231 -4.78515625 4.1015625 C-3.90150391 4.05128906 -3.90150391 4.05128906 -3 4 C-1.99357052 2.67151309 -0.99307821 1.33849671 0 0 Z M3 5 C2.67 6.32 2.34 7.64 2 9 C3.32 9 4.64 9 6 9 C6 7.68 6 6.36 6 5 C5.01 5 4.02 5 3 5 Z " fill="#222222" transform="translate(326,231)"/>
<path d="M0 0 C5.3785162 -0.35268959 5.3785162 -0.35268959 8 0 C8.474375 0.639375 8.94875 1.27875 9.4375 1.9375 C9.953125 2.618125 10.46875 3.29875 11 4 C12.85579739 4.12778833 12.85579739 4.12778833 15 4.0625 C17.35400391 4.18603516 17.35400391 4.18603516 20 5 C21.57887937 6.77489401 23.08826962 8.61243255 24.55078125 10.484375 C28.59386599 15.00243877 31.98200792 16.69981603 38.03244019 17.20591736 C42.42548542 17.35454404 46.79440913 17.30091887 51.1875 17.1875 C53.0162638 17.18052927 54.84505368 17.17853574 56.67382812 17.18164062 C61.11826426 17.17847802 65.55692527 17.10797923 70 17 C70 18.32 70 19.64 70 21 C66.18018468 22.27327177 62.55332591 22.20150502 58.5703125 22.23828125 C57.32929276 22.25038887 57.32929276 22.25038887 56.0632019 22.26274109 C54.31315191 22.27656427 52.56307516 22.28729432 50.81298828 22.29516602 C48.14173219 22.3123921 45.47170997 22.35629394 42.80078125 22.40039062 C41.09896742 22.41051701 39.39714308 22.41903328 37.6953125 22.42578125 C36.89932648 22.44328934 36.10334045 22.46079742 35.28323364 22.47883606 C31.30599477 22.46333686 29.41944691 22.26207861 25.95654297 20.09838867 C24 18 24 18 24 16 C23.34 16 22.68 16 22 16 C22 15.34 22 14.68 22 14 C21.34 14 20.68 14 20 14 C20 13.34 20 12.68 20 12 C19.34 12 18.68 12 18 12 C18 11.34 18 10.68 18 10 C13.40366442 10.43361656 11.15842303 10.70425423 8 14 C4.87255732 14.86503734 2.85354898 15.28451633 -0.25 14.25 C-2 13 -2 13 -4 10 C-4.125 6.8125 -4.125 6.8125 -4 4 C-3.34 4 -2.68 4 -2 4 C-1.34 2.68 -0.68 1.36 0 0 Z M2 5 C2 6.32 2 7.64 2 9 C3.32 8.67 4.64 8.34 6 8 C5.67 7.01 5.34 6.02 5 5 C4.01 5 3.02 5 2 5 Z " fill="#1A1A1A" transform="translate(166,231)"/>
<path d="M0 0 C0.80179688 0.05220703 1.60359375 0.10441406 2.4296875 0.15820312 C4.41179103 0.28798371 6.39344499 0.42459735 8.375 0.5625 C7.375 3.5625 7.375 3.5625 5.375 4.5625 C4.22257812 4.47548828 4.22257812 4.47548828 3.046875 4.38671875 C-3.4532574 4.08256817 -7.58223689 5.66832287 -12.47583008 9.77734375 C-17.79543878 14.77759814 -21.35212182 18.97550488 -21.72949219 26.47851562 C-21.78811641 32.85216875 -21.78811641 32.85216875 -19.10546875 38.3984375 C-18.61691406 38.78257812 -18.12835938 39.16671875 -17.625 39.5625 C-16.61555248 42.84320444 -16.29717301 45.35358477 -17.625 48.5625 C-21.3455836 51.04288907 -23.22296571 51.02587203 -27.625 50.5625 C-30.0625 49 -30.0625 49 -31.625 46.5625 C-31.875 42.8125 -31.875 42.8125 -31.625 39.5625 C-30.305 38.9025 -28.985 38.2425 -27.625 37.5625 C-27.79902344 36.29277344 -27.97304687 35.02304687 -28.15234375 33.71484375 C-28.87907308 25.96407147 -29.5013651 19.21875134 -24.35546875 12.89453125 C-20.7855665 9.13616539 -16.96309992 5.42815505 -12.625 2.5625 C-11.965 2.5625 -11.305 2.5625 -10.625 2.5625 C-10.625 1.9025 -10.625 1.2425 -10.625 0.5625 C-7.2967269 -1.10163655 -3.62766027 -0.25617406 0 0 Z M-24.625 40.5625 C-25.285 41.8825 -25.945 43.2025 -26.625 44.5625 C-25.305 44.8925 -23.985 45.2225 -22.625 45.5625 C-22.625 44.2425 -22.625 42.9225 -22.625 41.5625 C-23.285 41.2325 -23.945 40.9025 -24.625 40.5625 Z " fill="#2B2B2B" transform="translate(226.625,275.4375)"/>
<path d="M0 0 C0 0.66 0 1.32 0 2 C0.79857422 2.309375 0.79857422 2.309375 1.61328125 2.625 C4.99818882 4.57506132 7.46978332 7.21999548 10.1875 10 C10.73341797 10.5465625 11.27933594 11.093125 11.84179688 11.65625 C16.93101758 16.80222781 16.93101758 16.80222781 17.11352539 19.97119141 C17.10828857 20.75671387 17.10305176 21.54223633 17.09765625 22.3515625 C17.09443359 23.20234375 17.09121094 24.053125 17.08789062 24.9296875 C17.07532227 26.26386719 17.07532227 26.26386719 17.0625 27.625 C17.05798828 28.5221875 17.05347656 29.419375 17.04882812 30.34375 C17.03702591 32.56256648 17.02056155 34.78125018 17 37 C18.32 37.66 19.64 38.32 21 39 C21.48076923 45.25 21.48076923 45.25 19.4375 48.4375 C16.09493717 50.58016848 13.89504791 50.49573337 10 50 C7.5690416 48.46039301 7.11562135 47.33797009 6.1875 44.625 C5.96479613 41.50714575 6.54951315 39.74829087 8 37 C8.99 36.505 8.99 36.505 10 36 C11.50537038 26.16995979 11.50537038 26.16995979 8.81933594 16.83691406 C4.61032934 11.14620688 -0.52609046 5.94885565 -7.4609375 4.0546875 C-10.5749055 3.80325697 -10.5749055 3.80325697 -13.4765625 4.1171875 C-16 4 -16 4 -18.3359375 2.0078125 C-18.88507813 1.34523438 -19.43421875 0.68265625 -20 0 C-13.12631267 -0.74464946 -6.83079148 -1.18225237 0 0 Z M13 40 C12.34 41.32 11.68 42.64 11 44 C12.32 44.33 13.64 44.66 15 45 C15 43.68 15 42.36 15 41 C14.34 40.67 13.68 40.34 13 40 Z " fill="#2A2A2A" transform="translate(284,276)"/>
<path d="M0 0 C0.804375 -0.00128906 1.60875 -0.00257813 2.4375 -0.00390625 C3.283125 -0.00003906 4.12875 0.00382813 5 0.0078125 C6.2684375 0.00201172 6.2684375 0.00201172 7.5625 -0.00390625 C8.366875 -0.00261719 9.17125 -0.00132812 10 0 C10.7425 0.00112793 11.485 0.00225586 12.25 0.00341797 C14 0.1328125 14 0.1328125 15 1.1328125 C15.04246643 3.80819764 15.04919459 6.45990636 15 9.1328125 C15 9.7928125 15 10.4528125 15 11.1328125 C15 13.79947917 15 16.46614583 15 19.1328125 C14.05640625 19.11541016 14.05640625 19.11541016 13.09375 19.09765625 C8.83834509 19.05279505 4.71786319 19.09054535 0.5 19.6953125 C-3 20.1328125 -3 20.1328125 -5 19.1328125 C-5.09765625 12.98046875 -5.09765625 12.98046875 -5 11.1328125 C-4 10.1328125 -4 10.1328125 -1.93359375 10.03515625 C-0.69802734 10.05255859 -0.69802734 10.05255859 0.5625 10.0703125 C1.38878906 10.07933594 2.21507812 10.08835938 3.06640625 10.09765625 C3.70449219 10.10925781 4.34257812 10.12085938 5 10.1328125 C3.99163938 8.90013902 3.99163938 8.90013902 1.93359375 9.03515625 C0.69802734 9.05255859 0.69802734 9.05255859 -0.5625 9.0703125 C-1.80193359 9.08384766 -1.80193359 9.08384766 -3.06640625 9.09765625 C-3.70449219 9.10925781 -4.34257812 9.12085938 -5 9.1328125 C-5.09765625 2.98046875 -5.09765625 2.98046875 -5 1.1328125 C-3.4779041 -0.3892834 -2.11789918 0.00321729 0 0 Z " fill="#2D2D2D" transform="translate(245,196.8671875)"/>
<path d="M0 0 C0.33 0 0.66 0 1 0 C1 3.63 1 7.26 1 11 C-7.415 11.495 -7.415 11.495 -16 12 C-16.33 14.64 -16.66 17.28 -17 20 C-19.97 20 -22.94 20 -26 20 C-26 17.03 -26 14.06 -26 11 C-23.36 11 -20.72 11 -18 11 C-17.67 8.03 -17.34 5.06 -17 2 C-15.85660156 1.93941406 -14.71320313 1.87882813 -13.53515625 1.81640625 C-12.04425695 1.73201572 -10.55337225 1.64736698 -9.0625 1.5625 C-8.30775391 1.52318359 -7.55300781 1.48386719 -6.77539062 1.44335938 C-3.08055813 1.55961976 -3.08055813 1.55961976 0 0 Z " fill="#1C1C1C" transform="translate(124,158)"/>
<path d="M0 0 C0.8125 1.6875 0.8125 1.6875 1 4 C-1.25 6.5 -1.25 6.5 -4 9 C-4.556875 9.763125 -5.11375 10.52625 -5.6875 11.3125 C-6.120625 11.869375 -6.55375 12.42625 -7 13 C-7.66 13 -8.32 13 -9 13 C-9 13.66 -9 14.32 -9 15 C-20.55 15 -32.1 15 -44 15 C-43.67 13.35 -43.34 11.7 -43 10 C-41.62279785 9.99383667 -41.62279785 9.99383667 -40.21777344 9.98754883 C-36.80276072 9.96053816 -33.3895399 9.91142817 -29.97509766 9.84741211 C-28.49897288 9.82425149 -27.02268331 9.80984085 -25.54638672 9.80444336 C-23.42050737 9.79513816 -21.29721232 9.7541254 -19.171875 9.70703125 C-17.2552002 9.68346558 -17.2552002 9.68346558 -15.29980469 9.65942383 C-11.84512834 9.29760723 -11.84512834 9.29760723 -9.71191406 6.6003418 C-9.14698242 5.742229 -8.58205078 4.88411621 -8 4 C-3.56756757 0 -3.56756757 0 0 0 Z " fill="#1D1D1D" transform="translate(308,228)"/>
<path d="M0 0 C12.87 0 25.74 0 39 0 C40 4 40 4 39 6 C26.46 5.67 13.92 5.34 1 5 C0.67 3.35 0.34 1.7 0 0 Z " fill="#161616" transform="translate(264,257)"/>
<path d="M0 0 C3.3 0 6.6 0 10 0 C10 3.3 10 6.6 10 10 C12.64 10 15.28 10 18 10 C18 12.64 18 15.28 18 18 C15.03 18 12.06 18 9 18 C9 15.36 9 12.72 9 10 C7.700625 10.020625 6.40125 10.04125 5.0625 10.0625 C3.70834367 10.08399454 2.35243917 10.07148199 1 10 C0 9 0 9 -0.09765625 6.93359375 C-0.06510417 4.62239583 -0.03255208 2.31119792 0 0 Z " fill="#0E0E0E" transform="translate(170,123)"/>
<path d="M0 0 C0.721875 0.00257812 1.44375 0.00515625 2.1875 0.0078125 C2.909375 0.00523438 3.63125 0.00265625 4.375 0 C6.1875 0.1328125 6.1875 0.1328125 7.1875 1.1328125 C7.25929964 2.65209288 7.27142007 4.17448732 7.25 5.6953125 C7.24097656 6.52160156 7.23195312 7.34789063 7.22265625 8.19921875 C7.21105469 8.83730469 7.19945312 9.47539063 7.1875 10.1328125 C8.8375 10.1328125 10.4875 10.1328125 12.1875 10.1328125 C9.1875 12.1328125 9.1875 12.1328125 7.1875 12.1328125 C7.1875 14.1128125 7.1875 16.0928125 7.1875 18.1328125 C4.1875 14.3828125 4.1875 14.3828125 4.1875 12.1328125 C1.8775 12.1328125 -0.4325 12.1328125 -2.8125 12.1328125 C-2.83937279 10.32039198 -2.85883715 8.50786017 -2.875 6.6953125 C-2.88660156 5.68597656 -2.89820313 4.67664063 -2.91015625 3.63671875 C-2.77625272 0.20343231 -2.77625272 0.20343231 0 0 Z " fill="#353535" transform="translate(135.8125,112.8671875)"/>
<path d="M0 0 C0.66 0.33 1.32 0.66 2 1 C2 2.65 2 4.3 2 6 C1.13197754 6.02505615 0.26395508 6.0501123 -0.63037109 6.07592773 C-3.84713163 6.17099484 -7.06372849 6.27023203 -10.28027344 6.37231445 C-11.6731259 6.41565846 -13.06603131 6.45733396 -14.45898438 6.49731445 C-16.45976651 6.55502932 -18.46035859 6.61921869 -20.4609375 6.68359375 C-21.66540527 6.72025146 -22.86987305 6.75690918 -24.11083984 6.79467773 C-26.93996367 6.81052987 -26.93996367 6.81052987 -29 8 C-29.625 6.125 -29.625 6.125 -30 4 C-28 2 -28 2 -25.20263672 1.77294922 C-24.04006348 1.78342285 -22.87749023 1.79389648 -21.6796875 1.8046875 C-19.79443359 1.81435547 -19.79443359 1.81435547 -17.87109375 1.82421875 C-15.89302734 1.84935547 -15.89302734 1.84935547 -13.875 1.875 C-12.53516279 1.88503017 -11.19531848 1.89415596 -9.85546875 1.90234375 C-6.57013427 1.92597925 -3.28515535 1.95892766 0 2 C0 1.34 0 0.68 0 0 Z " fill="#0C0C0C" transform="translate(234,265)"/>
<path d="M0 0 C8.91 0 17.82 0 27 0 C27.33 1.32 27.66 2.64 28 4 C19.02243049 5.3300103 10.05168034 5.08788039 1 5 C0.67 3.35 0.34 1.7 0 0 Z " fill="#0D0D0D" transform="translate(264,248)"/>
<path d="M0 0 C0.99 0.66 1.98 1.32 3 2 C3 2.66 3 3.32 3 4 C3.66 4 4.32 4 5 4 C5 4.66 5 5.32 5 6 C5.66 6 6.32 6 7 6 C7 6.66 7 7.32 7 8 C7.66 8 8.32 8 9 8 C9 8.66 9 9.32 9 10 C9.99 10.33 10.98 10.66 12 11 C12 11.66 12 12.32 12 13 C13.11375 12.95875 14.2275 12.9175 15.375 12.875 C19 13 19 13 21 15 C20.34 15 19.68 15 19 15 C18.67 15.99 18.34 16.98 18 18 C12.92860986 17.97746049 9.17130791 17.74258406 5.4375 14.0625 C3 11 3 11 3 9 C2.34 9 1.68 9 1 9 C1 8.34 1 7.68 1 7 C0.01 6.67 -0.98 6.34 -2 6 C-1.34 5.67 -0.68 5.34 0 5 C0 3.35 0 1.7 0 0 Z " fill="#232223" transform="translate(303,258)"/>
<path d="M0 0 C0.721875 0.00257813 1.44375 0.00515625 2.1875 0.0078125 C2.909375 0.00523437 3.63125 0.00265625 4.375 0 C6.1875 0.1328125 6.1875 0.1328125 7.1875 1.1328125 C7.32865161 3.80340101 7.22997107 6.45713488 7.1875 9.1328125 C9.8275 9.1328125 12.4675 9.1328125 15.1875 9.1328125 C15.1875 9.4628125 15.1875 9.7928125 15.1875 10.1328125 C9.2475 10.1328125 3.3075 10.1328125 -2.8125 10.1328125 C-2.8125 0.20608836 -2.8125 0.20608836 0 0 Z " fill="#4F4F4F" transform="translate(117.8125,131.8671875)"/>
<path d="M0 0 C-1.32 0.33 -2.64 0.66 -4 1 C-3.01 1.99 -2.02 2.98 -1 4 C-1.33 4.66 -1.66 5.32 -2 6 C-2 6.99 -2 7.98 -2 9 C-1.34 9 -0.68 9 0 9 C1.625 11 1.625 11 3 13 C0 15 0 15 -3.5 14.875 C-7 14 -7 14 -9 12.375 C-10.46981805 8.88418213 -9.98413921 6.60851044 -9 3 C-6.22926837 -0.06759573 -4.03134006 -0.335945 0 0 Z " fill="#353535" transform="translate(174,265)"/>
<path d="M0 0 C1.91015625 0.1328125 1.91015625 0.1328125 3.91015625 1.1328125 C3.91015625 3.4428125 3.91015625 5.7528125 3.91015625 8.1328125 C1.50469987 9.33554069 -0.03981328 9.23352722 -2.71484375 9.1953125 C-3.94074219 9.18177734 -3.94074219 9.18177734 -5.19140625 9.16796875 C-6.13113281 9.15056641 -6.13113281 9.15056641 -7.08984375 9.1328125 C-7.1875 2.98046875 -7.1875 2.98046875 -7.08984375 1.1328125 C-5.19099279 -0.76603846 -2.51736472 0.00913744 0 0 Z " fill="#393939" transform="translate(247.08984375,196.8671875)"/>
<path d="M0 0 C3.3 0 6.6 0 10 0 C10 2.97 10 5.94 10 9 C6.7 9 3.4 9 0 9 C0 6.03 0 3.06 0 0 Z " fill="#343434" transform="translate(115,100)"/>
<path d="M0 0 C0 2.97 0 5.94 0 9 C-3.3 9 -6.6 9 -10 9 C-9.4140625 2.84765625 -9.4140625 2.84765625 -9 1 C-6.04335481 -0.4783226 -3.25770263 -0.06032783 0 0 Z " fill="#070707" transform="translate(170,187)"/>
<path d="M0 0 C2.97 0 5.94 0 9 0 C9 2.97 9 5.94 9 9 C6.03 9 3.06 9 0 9 C0 6.03 0 3.06 0 0 Z " fill="#151515" transform="translate(98,114)"/>
<path d="M0 0 C9.9 0 19.8 0 30 0 C30 0.33 30 0.66 30 1 C29.17798096 0.99887207 28.35596191 0.99774414 27.5090332 0.99658203 C23.77602442 1.00870476 20.04505583 1.06636388 16.3125 1.125 C15.01892578 1.12242187 13.72535156 1.11984375 12.39257812 1.1171875 C5.94940776 1.00294645 5.94940776 1.00294645 0.13256836 3.26391602 C-1.35880904 5.0097829 -1.35880904 5.0097829 -3 8 C-4.31993293 9.26585746 -5.6710241 10.50073428 -7.0625 11.6875 C-7.71347656 12.24824219 -8.36445313 12.80898438 -9.03515625 13.38671875 C-10.98236898 14.98552364 -12.97223392 16.50514349 -15 18 C-15.66 17.67 -16.32 17.34 -17 17 C-15.37660195 15.29115995 -13.70680947 13.62553283 -12 12 C-11.34 12 -10.68 12 -10 12 C-10 11.34 -10 10.68 -10 10 C-9.34 10 -8.68 10 -8 10 C-8 9.34 -8 8.68 -8 8 C-7.34 8 -6.68 8 -6 8 C-6 7.34 -6 6.68 -6 6 C-5.34 6 -4.68 6 -4 6 C-4 5.34 -4 4.68 -4 4 C-3.34 4 -2.68 4 -2 4 C-1.34 2.68 -0.68 1.36 0 0 Z " fill="#515151" transform="translate(204,266)"/>
<path d="M0 0 C2.97 0 5.94 0 9 0 C9 2.64 9 5.28 9 8 C6.03 8 3.06 8 0 8 C0 5.36 0 2.72 0 0 Z " fill="#010101" transform="translate(179,133)"/>
<path d="M0 0 C-0.33 0.66 -0.66 1.32 -1 2 C-1.66 2 -2.32 2 -3 2 C-2.67 3.65 -2.34 5.3 -2 7 C-2.66 6.67 -3.32 6.34 -4 6 C-4 5.34 -4 4.68 -4 4 C-6.33075929 4.95865509 -6.33075929 4.95865509 -8 8 C-8.99 7.34 -9.98 6.68 -11 6 C-13.32387947 5.60612212 -15.65793749 5.26513915 -18 5 C-18 4.67 -18 4.34 -18 4 C-17.05125 3.896875 -16.1025 3.79375 -15.125 3.6875 C-11.70892499 3.31460705 -11.70892499 3.31460705 -10 0 C-6.30581799 -1.231394 -3.7943739 -0.64432764 0 0 Z M-11 7 C-9 8 -9 8 -9 8 Z " fill="#383838" transform="translate(333,266)"/>
<path d="M0 0 C2.64 0 5.28 0 8 0 C8.38063221 2.3260857 8.71269945 4.66055264 9 7 C8 8 8 8 5.93359375 8.09765625 C5.10988281 8.08605469 4.28617188 8.07445312 3.4375 8.0625 C2.61121094 8.05347656 1.78492188 8.04445312 0.93359375 8.03515625 C0.29550781 8.02355469 -0.34257812 8.01195312 -1 8 C-0.67 5.36 -0.34 2.72 0 0 Z " fill="#020202" transform="translate(134,161)"/>
<path d="M0 0 C2.64 0 5.28 0 8 0 C8 2.64 8 5.28 8 8 C5.36 8 2.72 8 0 8 C0 5.36 0 2.72 0 0 Z " fill="#1F1F1F" transform="translate(251,197)"/>
<path d="M0 0 C1.134375 0.020625 2.26875 0.04125 3.4375 0.0625 C3.4375 2.7025 3.4375 5.3425 3.4375 8.0625 C0.7975 8.0625 -1.8425 8.0625 -4.5625 8.0625 C-4.60491723 5.72955225 -4.60342937 3.39547433 -4.5625 1.0625 C-3.5625 0.0625 -3.5625 0.0625 0 0 Z " fill="#272727" transform="translate(102.5625,141.9375)"/>
<path d="M0 0 C0 1.98 0 3.96 0 6 C-2.97 6 -5.94 6 -9 6 C-9 3.69 -9 1.38 -9 -1 C-5.79937313 -2.60031344 -3.27728194 -1.03173691 0 0 Z " fill="#030303" transform="translate(142,126)"/>
<path d="M0 0 C2.64 0 5.28 0 8 0 C8 2.64 8 5.28 8 8 C5.36 7.67 2.72 7.34 0 7 C0 4.69 0 2.38 0 0 Z " fill="#020202" transform="translate(125,142)"/>
<path d="M0 0 C5.5 -0.36666667 5.5 -0.36666667 7.875 1.375 C9 3 9 3 9 5 C8.01 5.33 7.02 5.66 6 6 C5.34 6.66 4.68 7.32 4 8 C4 7.01 4 6.02 4 5 C3.01 4.67 2.02 4.34 1 4 C1.33 3.34 1.66 2.68 2 2 C1.34 1.34 0.68 0.68 0 0 Z " fill="#333333" transform="translate(324,205)"/>
<path d="M0 0 C0 0.33 0 0.66 0 1 C-1.65 1 -3.3 1 -5 1 C-5 1.66 -5 2.32 -5 3 C-2.36 3.33 0.28 3.66 3 4 C3 4.33 3 4.66 3 5 C-0.3 5 -3.6 5 -7 5 C-7.33 5.66 -7.66 6.32 -8 7 C-8.33 5.02 -8.66 3.04 -9 1 C-6.04335481 -0.4783226 -3.25770263 -0.06032783 0 0 Z " fill="#292929" transform="translate(185,270)"/>
<path d="M0 0 C0.33 0 0.66 0 1 0 C1 3.63 1 7.26 1 11 C0.67 10.34 0.34 9.68 0 9 C-1.1446875 9.2784375 -1.1446875 9.2784375 -2.3125 9.5625 C-5 10 -5 10 -8 9 C-8 8.34 -8 7.68 -8 7 C-5.69 7 -3.38 7 -1 7 C-0.67 4.69 -0.34 2.38 0 0 Z " fill="#595959" transform="translate(133,142)"/>
<path d="M0 0 C2.64 0 5.28 0 8 0 C8.33 0.99 8.66 1.98 9 3 C6.03 3 3.06 3 0 3 C0 2.01 0 1.02 0 0 Z " fill="#040404" transform="translate(283,249)"/>
<path d="M0 0 C1.65 0.33 3.3 0.66 5 1 C4.67 2.32 4.34 3.64 4 5 C3.67 4.34 3.34 3.68 3 3 C0.97536745 2.34786708 0.97536745 2.34786708 -1 2 C-0.67 1.34 -0.34 0.68 0 0 Z " fill="#1B1B1B" transform="translate(137,122)"/>
</svg>
